<?xml version="1.0" standalone="no"?>
<!DOCTYPE svg PUBLIC "-//W3C//DTD SVG 1.1//EN" "http://www.w3.org/Graphics/SVG/1.1/DTD/svg11.dtd">
<svg stroke-width="0.501" stroke-linejoin="bevel" fill-rule="evenodd" xmlns:xlink="http://www.w3.org/1999/xlink" xmlns="http://www.w3.org/2000/svg" version="1.1" overflow="visible" viewBox="0 0 600 152.252">
 <defs>
	</defs>
 <g id="Document" fill="none" stroke="black" font-family="Times New Roman" font-size="16" transform="scale(1 -1)">
  <g id="Spread" transform="translate(0 -152.252)">
   <g id="Layer 1">
    <path d="M 173.415,33.943 C 172.107,34.867 171.453,36.021 171.453,37.405 C 171.453,38.79 171.876,39.964 172.722,40.925 C 173.569,41.887 174.492,42.368 175.492,42.368 C 176.492,42.368 177.685,42.06 179.07,41.445 C 183.532,39.444 188.417,38.444 193.726,38.444 C 202.266,38.444 206.536,41.175 206.536,46.638 C 206.536,48.33 205.69,49.619 203.997,50.504 C 202.305,51.389 200.17,52.177 197.592,52.87 C 195.015,53.562 192.226,54.274 189.225,55.005 C 186.225,55.736 183.436,56.755 180.858,58.063 C 178.281,59.371 176.146,61.083 174.453,63.198 C 172.761,65.314 171.915,67.911 171.915,70.988 C 171.915,74.066 172.376,76.72 173.299,78.951 C 174.223,81.182 175.608,83.106 177.454,84.721 C 181.532,88.184 187.186,89.915 194.419,89.915 C 200.189,89.915 205.767,88.953 211.152,87.03 C 212.229,86.645 213.056,86.029 213.633,85.183 C 214.21,84.337 214.499,83.394 214.499,82.356 C 214.499,81.317 214.057,80.336 213.172,79.413 C 212.287,78.49 211.421,78.028 210.575,78.028 C 209.729,78.028 208.69,78.22 207.459,78.605 C 203.766,79.759 199.727,80.336 195.342,80.336 C 190.956,80.336 187.629,79.567 185.359,78.028 C 183.09,76.489 181.955,74.643 181.955,72.489 C 181.955,70.334 182.82,68.738 184.551,67.699 C 186.282,66.661 188.417,65.795 190.956,65.103 C 193.495,64.41 196.284,63.718 199.323,63.025 C 202.362,62.333 205.151,61.371 207.69,60.14 C 213.691,57.063 216.692,52.293 216.692,45.83 C 216.692,40.906 214.845,36.905 211.152,33.828 C 207.152,30.443 201.574,28.75 194.419,28.75 C 186.648,28.75 179.647,30.481 173.415,33.943 Z M 404.583,31.578 C 399.659,33.462 395.389,36.213 391.773,39.829 C 384.079,47.369 380.232,57.486 380.232,70.18 C 380.232,82.875 384.079,92.992 391.773,100.532 C 399.236,107.918 408.853,111.611 420.624,111.611 C 426.317,111.611 431.222,110.918 435.338,109.533 C 439.454,108.149 442.608,106.86 444.801,105.667 C 446.994,104.475 448.321,103.513 448.783,102.782 C 449.244,102.051 449.475,101.128 449.475,100.013 C 449.475,98.897 449.071,97.897 448.263,97.012 C 447.455,96.127 446.494,95.685 445.378,95.685 C 444.263,95.685 443.397,95.839 442.782,96.147 C 439.704,97.762 436.55,99.07 433.318,100.07 C 430.087,101.07 426.067,101.571 421.259,101.571 C 416.45,101.571 412.103,100.763 408.218,99.147 C 404.333,97.531 401.082,95.3 398.466,92.454 C 393.311,86.837 390.734,79.413 390.734,70.18 C 390.734,60.948 393.311,53.524 398.466,47.907 C 404.083,41.829 411.815,38.79 421.663,38.79 C 426.202,38.79 430.087,39.29 433.318,40.291 C 436.55,41.291 439.704,42.599 442.782,44.214 C 443.397,44.522 444.263,44.676 445.378,44.676 C 446.494,44.676 447.455,44.234 448.263,43.349 C 449.071,42.464 449.475,41.445 449.475,40.291 C 449.475,38.213 448.629,36.752 446.936,35.905 C 443.32,33.905 439.454,32.212 435.338,30.827 C 431.222,29.443 426.298,28.75 420.566,28.75 C 414.834,28.75 409.507,29.693 404.583,31.578 Z M 305.42,30.827 C 304.42,31.828 303.92,33.059 303.92,34.52 L 303.92,105.148 C 303.92,106.61 304.42,107.86 305.42,108.899 C 306.42,109.937 307.651,110.457 309.113,110.457 L 336.002,110.457 C 346.543,110.457 354.506,108.226 359.891,103.763 C 364.892,99.532 367.392,93.954 367.392,87.03 C 367.392,82.567 366.142,78.413 363.642,74.566 C 361.141,70.719 357.352,67.911 352.274,66.141 C 357.814,64.679 361.815,60.679 364.277,54.139 C 365.892,49.754 366.7,44.984 366.7,39.829 L 366.7,34.52 C 366.7,33.059 366.2,31.828 365.2,30.827 C 364.2,29.827 362.93,29.327 361.391,29.327 C 359.853,29.327 358.602,29.808 357.641,30.77 C 356.679,31.731 356.198,32.982 356.198,34.52 L 356.198,37.983 C 356.198,44.214 355.506,48.792 354.121,51.716 C 352.736,54.639 350.851,56.967 348.466,58.698 C 346.081,60.429 342.696,61.294 338.31,61.294 L 314.422,61.294 L 314.422,34.52 C 314.422,33.059 313.902,31.828 312.864,30.827 C 311.825,29.827 310.575,29.327 309.113,29.327 C 307.651,29.327 306.42,29.827 305.42,30.827 Z M 232.886,31.404 C 231.886,32.405 231.386,33.636 231.386,35.097 L 231.386,105.148 C 231.386,106.61 231.886,107.86 232.886,108.899 C 233.886,109.937 235.117,110.457 236.579,110.457 L 282.856,110.457 C 284.241,110.457 285.414,109.976 286.376,109.014 C 287.338,108.052 287.819,106.879 287.819,105.494 C 287.819,104.109 287.338,102.955 286.376,102.032 C 285.414,101.109 284.241,100.647 282.856,100.647 L 241.888,100.647 L 241.888,75.143 L 278.702,75.143 C 280.087,75.143 281.26,74.662 282.222,73.7 C 283.183,72.739 283.664,71.565 283.664,70.18 C 283.664,68.796 283.183,67.642 282.222,66.718 C 281.26,65.795 280.087,65.333 278.702,65.333 L 241.888,65.333 L 241.888,39.714 L 282.856,39.714 C 284.241,39.714 285.414,39.233 286.376,38.271 C 287.338,37.309 287.819,36.136 287.819,34.751 C 287.819,33.366 287.338,32.212 286.376,31.289 C 285.414,30.366 284.241,29.904 282.856,29.904 L 236.579,29.904 C 235.117,29.904 233.886,30.404 232.886,31.404 Z M 350.947,75.027 C 354.909,77.566 356.891,81.298 356.891,86.222 C 356.891,90.838 355.352,94.3 352.274,96.608 C 348.581,99.224 342.734,100.532 334.733,100.532 L 314.422,100.532 L 314.422,71.219 L 335.31,71.219 C 341.773,71.219 346.985,72.489 350.947,75.027 Z" stroke="none" fill="#e5e5e5" stroke-width="2.887" fill-rule="nonzero" stroke-linejoin="round" stroke-linecap="round" marker-start="none" marker-end="none" stroke-miterlimit="79.8403193612775"/>
    <path d="M 537.395,40.175 C 532.164,47.407 529.548,57.409 529.548,70.18 C 529.548,82.875 532.164,92.838 537.395,100.07 C 542.858,107.764 550.667,111.611 560.823,111.611 C 565.977,111.611 570.517,110.611 574.44,108.61 C 578.364,106.61 581.634,103.763 584.25,100.07 C 589.481,92.838 592.097,82.875 592.097,70.18 C 592.097,57.409 589.481,47.407 584.25,40.175 C 578.71,32.558 570.901,28.75 560.823,28.75 C 550.744,28.75 542.935,32.558 537.395,40.175 Z M 462.467,31.578 C 461.313,32.693 460.736,34.136 460.736,35.905 C 460.736,39.983 461.871,43.637 464.14,46.869 C 466.41,50.1 469.257,53.101 472.68,55.87 C 476.104,58.64 479.816,61.256 483.817,63.718 C 487.818,66.18 491.53,68.642 494.953,71.104 C 498.377,73.566 501.224,76.105 503.493,78.72 C 505.763,81.336 506.898,83.952 506.898,86.568 C 506.898,89.184 506.571,91.357 505.917,93.088 C 505.263,94.819 504.243,96.3 502.859,97.531 C 499.781,100.301 495.05,101.686 488.664,101.686 C 481.816,101.686 475.238,100.301 468.93,97.531 C 468.16,97.147 467.275,96.954 466.275,96.954 C 465.275,96.954 464.371,97.377 463.563,98.224 C 462.755,99.07 462.352,100.301 462.352,101.917 C 462.352,103.532 463.198,104.802 464.89,105.725 C 472.738,109.649 481.278,111.611 490.51,111.611 C 498.05,111.611 504.32,109.457 509.321,105.148 C 514.476,100.763 517.053,95.108 517.053,88.184 C 517.053,81.182 513.553,74.45 506.552,67.988 C 503.474,65.218 500.108,62.602 496.454,60.14 C 492.799,57.678 489.279,55.312 485.894,53.043 C 482.509,50.773 479.47,48.542 476.777,46.349 C 474.084,44.157 472.238,41.945 471.238,39.714 L 511.399,39.714 C 512.783,39.714 513.957,39.233 514.918,38.271 C 515.88,37.309 516.361,36.136 516.361,34.751 C 516.361,33.366 515.88,32.212 514.918,31.289 C 513.957,30.366 512.783,29.904 511.399,29.904 L 466.852,29.904 C 465.083,29.904 463.621,30.462 462.467,31.578 Z M 576.287,46.984 C 579.826,52.6 581.595,60.333 581.595,70.18 C 581.595,79.951 579.826,87.645 576.287,93.261 C 572.748,98.955 567.574,101.801 560.765,101.801 C 553.956,101.801 548.801,98.955 545.301,93.261 C 541.8,87.568 540.05,79.874 540.05,70.18 C 540.05,60.333 541.819,52.6 545.358,46.984 C 548.897,41.291 554.052,38.444 560.823,38.444 C 567.593,38.444 572.748,41.291 576.287,46.984 Z" stroke="none" fill="#5046e5" stroke-width="2.887" fill-rule="nonzero" stroke-linejoin="round" stroke-linecap="round" marker-start="none" marker-end="none" stroke-miterlimit="79.8403193612775"/>
    <path d="M 69.535,14.872 L 8.799,120.067 C 5.527,125.732 4.319,132.538 7.698,138.39 C 11.077,144.24 17.575,146.596 24.119,146.596 L 95.565,146.596 L 87.801,132.279 L 24.119,132.279 C 20.595,132.279 20.019,131.096 20.096,131.229 C 20.173,131.364 19.438,130.275 21.198,127.224 L 81.935,22.029 C 83.694,18.978 85.006,19.071 84.851,19.071 C 84.697,19.071 86.009,18.98 87.771,22.029 L 148.505,127.224 C 150.265,130.275 149.529,131.364 149.607,131.231 C 149.685,131.096 149.11,132.279 145.589,132.279 L 143.458,132.279 L 135.696,146.596 L 145.589,146.596 C 152.128,146.596 158.628,144.24 162.005,138.39 C 165.384,132.538 164.174,125.732 160.904,120.067 L 100.169,14.872 C 92.363,1.35 77.324,1.375 69.535,14.872 Z" stroke="none" fill="#5046e5" stroke-width="0.954" fill-rule="evenodd" marker-start="none" marker-end="none" stroke-miterlimit="79.8403193612775"/>
    <path d="M 84.794,50.74 L 73.126,71.315 L 84.794,91.875 L 96.47,71.302 L 84.794,50.74 Z M 70.104,78.703 L 58.431,99.261 L 70.104,119.83 L 81.77,99.261 L 70.104,78.703 Z M 99.79,78.703 L 88.116,99.261 L 99.79,119.83 L 111.448,99.261 L 99.79,78.703 Z M 115.79,105.617 L 104.115,126.187 L 115.79,146.747 L 127.461,126.173 L 115.79,105.617 Z" fill="#ffffff" stroke="none" stroke-width="1.193" stroke-linejoin="miter" stroke-linecap="round" marker-start="none" marker-end="none" stroke-miterlimit="79.8403193612775"/>
    <path d="M 84.76,50.609 L 84.802,66.645 L 96.429,71.193 L 84.76,50.609 Z M 99.837,78.619 L 99.879,94.657 L 111.507,99.204 L 99.837,78.619 Z M 70.102,78.673 L 70.145,94.709 L 81.772,99.257 L 70.102,78.673 Z M 115.772,105.557 L 115.813,121.594 L 127.441,126.141 L 115.772,105.557 Z" stroke="none" fill="#8b8b8b" stroke-width="2.864" stroke-linejoin="round" stroke-linecap="round" marker-start="none" marker-end="none" stroke-miterlimit="79.8403193612775"/>
    <path d="M 84.79,50.609 L 73.121,71.193 L 84.749,66.645 L 84.79,50.609 Z M 99.867,78.619 L 88.198,99.204 L 99.826,94.657 L 99.867,78.619 Z M 70.133,78.673 L 58.463,99.257 L 70.091,94.709 L 70.133,78.673 Z M 115.802,105.557 L 104.133,126.141 L 115.761,121.594 L 115.802,105.557 Z" stroke="none" fill="#d4d4d4" stroke-width="2.864" stroke-linejoin="round" stroke-linecap="round" marker-start="none" marker-end="none" stroke-miterlimit="79.8403193612775"/>
    <path d="M 84.788,66.623 L 84.788,91.764 L 96.472,71.204 L 84.788,66.623 Z M 99.865,94.633 L 99.865,119.774 L 111.549,99.215 L 99.865,94.633 Z M 70.131,94.687 L 70.131,119.828 L 81.815,99.268 L 70.131,94.687 Z M 115.8,121.571 L 115.8,146.713 L 127.483,126.153 L 115.8,121.571 Z" stroke="none" fill="#d8d8d8" stroke-width="2.864" stroke-linejoin="round" stroke-linecap="round" marker-start="none" marker-end="none" stroke-miterlimit="79.8403193612775"/>
    <path d="M 84.783,66.623 L 73.099,71.204 L 84.783,91.764 L 84.783,66.623 Z M 99.86,94.633 L 88.177,99.215 L 99.86,119.774 L 99.86,94.633 Z M 70.126,94.687 L 58.442,99.268 L 70.126,119.828 L 70.126,94.687 Z M 115.795,121.571 L 104.111,126.153 L 115.795,146.713 L 115.795,121.571 Z" stroke="none" fill="#f3f3f3" stroke-width="2.864" stroke-linejoin="round" stroke-linecap="round" marker-start="none" marker-end="none" stroke-miterlimit="79.8403193612775"/>
   </g>
  </g>
 </g>
</svg>
